<?xml version="1.0" encoding="UTF-8" standalone="no"?>
<!-- Created with Inkscape (http://www.inkscape.org/) -->

<svg
   xmlns:dc="http://purl.org/dc/elements/1.1/"
   xmlns:cc="http://creativecommons.org/ns#"
   xmlns:rdf="http://www.w3.org/1999/02/22-rdf-syntax-ns#"
   xmlns:svg="http://www.w3.org/2000/svg"
   xmlns="http://www.w3.org/2000/svg"
   xmlns:sodipodi="http://sodipodi.sourceforge.net/DTD/sodipodi-0.dtd"
   xmlns:inkscape="http://www.inkscape.org/namespaces/inkscape"
   width="200"
   height="120"
   viewBox="0 0 52.916665 31.750001"
   version="1.1"
   id="svg8"
   inkscape:version="0.92.4 (5da689c313, 2019-01-14)"
   sodipodi:docname="cloche-tray.svg">
  <defs
     id="defs2" />
  <sodipodi:namedview
     id="base"
     pagecolor="#ffffff"
     bordercolor="#666666"
     borderopacity="1.0"
     inkscape:pageopacity="0.0"
     inkscape:pageshadow="2"
     inkscape:zoom="0.7"
     inkscape:cx="-95.590087"
     inkscape:cy="-2.564371"
     inkscape:document-units="px"
     inkscape:current-layer="layer1"
     showgrid="false"
     units="px"
     inkscape:window-width="1366"
     inkscape:window-height="705"
     inkscape:window-x="-8"
     inkscape:window-y="-8"
     inkscape:window-maximized="1" />
  <metadata
     id="metadata5">
    <rdf:RDF>
      <cc:Work
         rdf:about="">
        <dc:format>image/svg+xml</dc:format>
        <dc:type
           rdf:resource="http://purl.org/dc/dcmitype/StillImage" />
        <dc:title />
      </cc:Work>
    </rdf:RDF>
  </metadata>
  <g
     inkscape:label="Layer 1"
     inkscape:groupmode="layer"
     id="layer1"
     transform="translate(0,-265.24999)">
    <path
       inkscape:connector-curvature="0"
       id="path901-0"
       style="fill:none;stroke:#ffffff;stroke-width:1.21897006;stroke-linecap:round;stroke-linejoin:round;stroke-miterlimit:4;stroke-dasharray:none;stroke-opacity:1"
       d="m 7.0262888,289.95255 c 0.2826538,-4.18351 2.6294531,-8.92834 5.4936622,-11.59145 M 9.6576505,293.34051 H 50.871133 c 0.795572,0 1.436048,0.68013 1.436048,1.52499 0,0.84484 -0.640476,1.525 -1.436048,1.525 H 2.0455335 c -0.795572,0 -1.4360487,-0.68016 -1.4360487,-1.525 0,-0.84487 0.6404767,-1.52499 1.4360487,-1.52499 H 6.8357119 M 28.374466,267.80485 c 0,1.0744 -0.857882,1.94537 -1.916138,1.94537 -1.058255,-1e-5 -1.916126,-0.87099 -1.916126,-1.94537 0,-1.0744 0.857882,-1.94536 1.916126,-1.94538 1.058256,0 1.916138,0.87098 1.916138,1.94538 z M 4.0018511,292.63933 c 0,-12.59156 10.0541129,-22.79907 22.4564769,-22.79907 10.555624,0 19.410228,7.39395 21.813154,17.35868 m 0.524544,3.08098 c 0.07853,0.77561 0.11879,1.56275 0.11879,2.35941"
       sodipodi:nodetypes="cccsssssscssssscsccc" />
  </g>
</svg>
